<svg id="Capa_1" enable-background="new 0 0 512 512" height="512" viewBox="0 0 512 512" width="512" xmlns="http://www.w3.org/2000/svg"><g><path d="m405.5 512h-59.758c-39.052 0-74.95-22.869-91.454-58.262l-6.339-13.595 27.189-12.679 6.34 13.594c11.597 24.872 36.822 40.942 64.264 40.942h59.758c25.089 0 45.5-20.411 45.5-45.5v-8.5h30v8.5c0 41.631-33.869 75.5-75.5 75.5z" fill="#323c3c"/><g><path d="m444.371 284.559c-3.839 0-7.678-1.465-10.606-4.394-5.858-5.857-5.858-15.355 0-21.213 64.333-64.334 64.333-169.012 0-233.346-5.858-5.857-5.858-15.355 0-21.213s15.355-5.858 21.213 0c76.03 76.03 76.03 199.741 0 275.771-2.929 2.93-6.768 4.395-10.607 4.395z" fill="#bceaf9"/></g><g><path d="m482.014 142.28c0 42.253-16.083 84.505-48.25 116.672-5.858 5.857-5.858 15.355 0 21.213 2.929 2.929 6.768 4.394 10.606 4.394s7.678-1.465 10.606-4.394c38.016-38.015 57.024-87.95 57.024-137.885z" fill="#acceff"/></g><g><path d="m401.945 242.132c-3.839 0-7.678-1.465-10.606-4.394-5.858-5.857-5.858-15.355 0-21.213 40.939-40.939 40.939-107.553 0-148.492-5.858-5.857-5.858-15.355 0-21.213 5.857-5.857 15.355-5.857 21.213 0 52.637 52.636 52.637 138.282 0 190.918-2.93 2.929-6.768 4.394-10.607 4.394z" fill="#bceaf9"/></g><g><path d="m422.042 142.28c0 26.888-10.235 53.776-30.704 74.245-5.858 5.857-5.858 15.355 0 21.213 2.929 2.929 6.768 4.394 10.606 4.394s7.678-1.465 10.606-4.394c26.318-26.318 39.477-60.888 39.478-95.458z" fill="#acceff"/></g><g><path d="m359.518 199.706c-3.839 0-7.678-1.465-10.606-4.394-5.858-5.857-5.858-15.355 0-21.213 17.545-17.546 17.545-46.095 0-63.641-5.858-5.857-5.858-15.355 0-21.213 5.857-5.857 15.355-5.857 21.213 0 29.243 29.242 29.243 76.824 0 106.066-2.929 2.93-6.768 4.395-10.607 4.395z" fill="#bceaf9"/></g><g><path d="m362.071 142.28c0 11.523-4.387 23.047-13.159 31.82-5.858 5.857-5.858 15.355 0 21.213 2.929 2.929 6.768 4.394 10.606 4.394s7.678-1.465 10.606-4.394c14.621-14.621 21.932-33.827 21.932-53.033z" fill="#acceff"/></g><circle cx="317.092" cy="142.28" fill="#bceaf9" r="15"/><path d="m302.092 142.28c0 8.284 6.716 15 15 15s15-6.715 15-15z" fill="#acceff"/><path d="m512 451h-106.5c-25.089 0-45.5-20.411-45.5-45.5s20.411-45.5 45.5-45.5c36.673 0 67.323 26.281 74.103 61h32.397zm-106.5-61c-8.547 0-15.5 6.953-15.5 15.5s6.953 15.5 15.5 15.5h43.132c-6.067-18.002-23.11-31-43.132-31z" fill="#323c3c"/><g><path d="m277.626 317.144c-7.836-16.804-27.122-25.42-44.869-20.037l-37.67 11.423c-36.365-50.271-55.297-90.87-70.433-151.043l32.965-21.514c15.527-10.134 21.327-30.447 13.491-47.253l-31.266-67.05c-4.233-9.078-11.748-15.964-21.161-19.39-9.414-3.426-19.595-2.98-28.674 1.253l-33.777 15.75c-42.985 20.045-65.202 68.11-52.828 114.287 28.018 104.554 69.982 194.548 132.067 283.218 18.988 27.119 49.332 42.112 80.474 42.112 13.828 0 27.814-2.956 41.032-9.12l33.777-15.751c18.74-8.738 26.877-31.094 18.139-49.835z" fill="#ff5e93"/><path d="m232.757 297.107-37.67 11.423c-18.183-25.136-32.007-47.853-43.177-71.808l-95.247 44.414c21.754 46.651 47.766 91.317 78.808 135.652 18.988 27.119 49.332 42.112 80.474 42.112 13.828 0 27.814-2.956 41.032-9.12l33.777-15.751c18.74-8.738 26.877-31.094 18.139-49.835l-31.266-67.05c-7.837-16.803-27.123-25.419-44.87-20.037z" fill="#b7457d"/></g></g></svg>